<svg xmlns="http://www.w3.org/2000/svg" viewBox="0 0 511.74 511.73"><path d="M350.19,281.22c8.05,8.04,8.05,21.08,0,29.12l-39.83,39.83c-8.04,8.05-21.08,8.05-29.12,0l-119.68-119.68c-8.04-8.04-8.04-21.08,0-29.12l39.83-39.83c8.04-8.04,21.08-8.04,29.12,0l119.68,119.68ZM511.74,35.28v441.17c0,19.49-15.79,35.28-35.28,35.28H35.28c-19.47,0-35.28-15.79-35.28-35.28V35.28C0,15.79,15.81,0,35.28,0h441.18c19.49,0,35.28,15.79,35.28,35.28ZM438.65,235.12l-162.05-162.05c-28.77-28.76-75.41-28.76-104.17,0l-99.35,99.35c-28.76,28.76-28.76,75.4,0,104.17l162.05,162.05c28.77,28.76,75.41,28.76,104.17,0l99.35-99.35c28.76-28.76,28.76-75.4,0-104.17Z" fill="#fdc700"/></svg>
